<?xml version="1.0" encoding="UTF-8" standalone="no"?>
<svg
   viewBox="0 0 24 24"
   version="1.1"
   id="svg1"
   sodipodi:docname="account-check-outline.svg"
   inkscape:version="1.4.2 (ebf0e940d0, 2025-05-08)"
   xmlns:inkscape="http://www.inkscape.org/namespaces/inkscape"
   xmlns:sodipodi="http://sodipodi.sourceforge.net/DTD/sodipodi-0.dtd"
   xmlns="http://www.w3.org/2000/svg"
   xmlns:svg="http://www.w3.org/2000/svg">
  <defs
     id="defs1" />
  <sodipodi:namedview
     id="namedview1"
     pagecolor="#ffffff"
     bordercolor="#111111"
     borderopacity="1"
     inkscape:showpageshadow="0"
     inkscape:pageopacity="0"
     inkscape:pagecheckerboard="1"
     inkscape:deskcolor="#d1d1d1"
     inkscape:zoom="15.416667"
     inkscape:cx="12"
     inkscape:cy="11.967568"
     inkscape:window-width="1900"
     inkscape:window-height="1032"
     inkscape:window-x="0"
     inkscape:window-y="0"
     inkscape:window-maximized="1"
     inkscape:current-layer="svg1" />
  <path
     d="M21.1,12.5L22.5,13.91L15.97,20.5L12.5,17L13.9,15.59L15.97,17.67L21.1,12.5M11,4A4,4 0 0,1 15,8A4,4 0 0,1 11,12A4,4 0 0,1 7,8A4,4 0 0,1 11,4M11,6A2,2 0 0,0 9,8A2,2 0 0,0 11,10A2,2 0 0,0 13,8A2,2 0 0,0 11,6M11,13C11.68,13 12.5,13.09 13.41,13.26L11.74,14.93L11,14.9C8.03,14.9 4.9,16.36 4.9,17V18.1H11.1L13,20H3V17C3,14.34 8.33,13 11,13Z"
     id="path1"
     style="fill:#ffffff" />
</svg>
