<svg width="222" height="62" viewBox="0 0 222 62" fill="none" xmlns="http://www.w3.org/2000/svg">
<g clip-path="url(#clip0_18240_4121)">
<path fill-rule="evenodd" clip-rule="evenodd" d="M68.3357 5.44641C70.1837 6.03443 72.0947 7.48346 73.2288 9.1845C73.3158 9.31404 73.3982 9.43408 73.4762 9.54769C73.6904 9.85966 73.8713 10.1232 74.0243 10.402C74.8568 11.9188 74.8649 13.8881 74.9173 26.5698V26.5703C74.9211 27.4993 74.9252 28.4859 74.9298 29.534L74.9928 46.3974H71.6327H68.2517L68.2097 29.828L68.1466 13.2586L67.6216 12.6916C66.2146 11.1795 64.4296 11.1585 63.0435 12.6286C62.7705 12.9436 62.3715 13.9096 62.0775 15.0226C61.8821 15.7065 61.492 17.1785 61.0612 18.8041C60.8437 19.6248 60.6159 20.4846 60.3975 21.3018C59.9128 23.1598 59.0552 26.3601 58.2838 29.239L58.2799 29.2535L58.2779 29.2608C58.0487 30.1163 57.8271 30.9429 57.6254 31.697C57.1268 33.6062 56.5156 35.9026 55.9793 37.9176L55.9783 37.9211C55.5888 39.3846 55.2388 40.6994 55.0003 41.6093L54.9637 41.749L54.9636 41.7492L54.9636 41.7493C53.7613 46.3348 53.754 46.3625 53.0263 47.0694C52.2073 47.8884 51.0102 48.1824 49.8342 47.8464C48.3642 47.4474 47.8602 46.6704 47.0621 43.5623C45.8861 39.0052 42.925 30.857 42.421 30.857C42.337 30.857 41.98 31.508 41.623 32.3061C39.691 36.6322 36.0789 41.3363 32.7608 43.8143C28.4977 47.0274 23.3736 48.4765 18.3754 47.8884C10.0172 46.9224 4.2631 42.5963 1.38603 35.1201C0.399008 32.6001 0 30.269 0 27.2029C0 21.4488 1.95305 16.5557 5.77514 12.6706C9.59723 8.78549 14.9734 6.70644 21.1895 6.70644C27.7207 6.70644 33.4538 9.03749 38.6619 13.8046C39.523 14.5816 39.88 14.8126 39.964 14.6026C40.027 14.4346 40.237 12.7546 40.426 10.8645C40.4986 10.1463 40.5743 9.41255 40.6424 8.75267C40.7516 7.6954 40.8411 6.82776 40.867 6.51743L40.993 5.61441L44.1641 5.76142C45.9281 5.84542 47.3981 5.95042 47.4191 5.97142C47.5451 6.09742 47.0411 11.8936 46.7261 14.1616C46.5581 15.3166 46.1591 17.5427 45.8651 19.1177L45.2981 21.9948L46.2431 23.6329C47.5452 25.8799 48.9312 28.715 49.7712 30.794C50.1702 31.76 50.5062 32.4951 50.5482 32.4741C50.5902 32.4111 53.4043 21.9528 55.7353 13.1746C56.3654 10.7595 56.9954 9.45751 58.1294 8.15548C60.5865 5.38341 64.6186 4.31238 68.3357 5.44641ZM18.2284 13.5317C14.9103 14.0777 12.3272 15.4007 10.1642 17.6688C4.01103 24.1789 5.96408 36.0022 13.8603 39.8663C15.9813 40.8953 17.9344 41.3573 20.3914 41.3573C22.9535 41.3573 24.1925 41.0843 26.3976 39.9923C30.9127 37.7662 35.0078 32.2641 37.3808 25.2289L38.0949 23.1499L36.7928 21.5749C35.2598 19.6848 32.9497 17.5218 31.3747 16.4717C29.7157 15.3797 26.9646 14.1197 25.3895 13.7627C23.3525 13.2797 20.3284 13.1957 18.2284 13.5317Z" fill="#FAF1E0"/>
<circle cx="71.4373" cy="52.9475" r="4.05195" fill="#FAF1E0"/>
<path d="M110.437 15.4302C111.758 15.4302 112.936 15.709 113.968 16.2666C115.001 16.8036 115.817 17.6193 116.416 18.7139C117.015 19.8085 117.314 21.1406 117.314 22.7102V32.7163H114.526V23.1129C114.526 21.4194 114.103 20.1286 113.256 19.2406C112.43 18.3319 111.304 17.8775 109.879 17.8775C108.413 17.8775 107.246 18.3525 106.378 19.3025C105.511 20.2319 105.077 21.5846 105.077 23.3607V32.7163H102.289V23.1129C102.289 21.4194 101.866 20.1286 101.019 19.2406C100.193 18.3319 99.0675 17.8775 97.6425 17.8775C96.1762 17.8775 95.0093 18.3525 94.1419 19.3025C93.2745 20.2319 92.8408 21.5846 92.8408 23.3607V32.7163H90.0217V15.74H92.8408V18.1873C93.3984 17.2992 94.1419 16.6177 95.0712 16.1427C96.0213 15.6677 97.0642 15.4302 98.2001 15.4302C99.6251 15.4302 100.885 15.7503 101.98 16.3905C103.074 17.0307 103.89 17.9704 104.427 19.2096C104.902 18.0117 105.687 17.0824 106.781 16.4215C107.876 15.7606 109.094 15.4302 110.437 15.4302ZM137.428 23.5776C137.428 24.1145 137.397 24.6825 137.335 25.2814H123.766C123.869 26.9543 124.437 28.2657 125.47 29.2157C126.523 30.1451 127.793 30.6098 129.28 30.6098C130.499 30.6098 131.511 30.3309 132.316 29.7733C133.142 29.1951 133.721 28.4309 134.051 27.4809H137.087C136.633 29.1125 135.724 30.4445 134.361 31.4772C132.998 32.4891 131.304 32.9951 129.28 32.9951C127.669 32.9951 126.224 32.6337 124.943 31.9109C123.683 31.188 122.692 30.1657 121.969 28.844C121.246 27.5016 120.885 25.9526 120.885 24.1972C120.885 22.4417 121.236 20.9031 121.938 19.5813C122.64 18.2596 123.621 17.2476 124.881 16.5454C126.162 15.8226 127.628 15.4612 129.28 15.4612C130.891 15.4612 132.316 15.8123 133.555 16.5144C134.794 17.2166 135.744 18.1873 136.405 19.4264C137.087 20.6449 137.428 22.0286 137.428 23.5776ZM134.516 22.989C134.516 21.9151 134.278 20.996 133.803 20.2319C133.328 19.4471 132.678 18.8585 131.851 18.4661C131.046 18.053 130.148 17.8465 129.156 17.8465C127.731 17.8465 126.513 18.3009 125.501 19.2096C124.51 20.1183 123.942 21.3781 123.797 22.989H134.516ZM149.42 15.4302C151.485 15.4302 153.158 16.0601 154.439 17.3199C155.719 18.559 156.359 20.3558 156.359 22.7102V32.7163H153.571V23.1129C153.571 21.4194 153.148 20.1286 152.301 19.2406C151.454 18.3319 150.298 17.8775 148.831 17.8775C147.344 17.8775 146.157 18.3422 145.269 19.2715C144.401 20.2009 143.968 21.5536 143.968 23.3298V32.7163H141.149V15.74H143.968V18.1563C144.525 17.2889 145.279 16.6177 146.229 16.1427C147.2 15.6677 148.263 15.4302 149.42 15.4302ZM164.403 18.0634V28.0695C164.403 28.8956 164.578 29.4842 164.929 29.8353C165.281 30.1657 165.89 30.3309 166.757 30.3309H168.833V32.7163H166.293C164.723 32.7163 163.546 32.3549 162.761 31.6321C161.976 30.9092 161.584 29.7217 161.584 28.0695V18.0634H159.384V15.74H161.584V11.4649H164.403V15.74H168.833V18.0634H164.403ZM179.652 32.9951C178.062 32.9951 176.616 32.6337 175.315 31.9109C174.035 31.188 173.023 30.1657 172.279 28.844C171.557 27.5016 171.195 25.9526 171.195 24.1972C171.195 22.4624 171.567 20.9341 172.31 19.6123C173.075 18.2699 174.107 17.2476 175.408 16.5454C176.709 15.8226 178.165 15.4612 179.776 15.4612C181.387 15.4612 182.843 15.8226 184.144 16.5454C185.445 17.2476 186.468 18.2596 187.211 19.5813C187.975 20.9031 188.357 22.4417 188.357 24.1972C188.357 25.9526 187.965 27.5016 187.18 28.844C186.416 30.1657 185.373 31.188 184.051 31.9109C182.73 32.6337 181.263 32.9951 179.652 32.9951ZM179.652 30.5168C180.664 30.5168 181.614 30.2793 182.502 29.8043C183.39 29.3293 184.103 28.6168 184.64 27.6668C185.198 26.7168 185.476 25.5602 185.476 24.1972C185.476 22.8341 185.208 21.6776 184.671 20.7275C184.134 19.7775 183.432 19.0753 182.564 18.621C181.697 18.146 180.757 17.9085 179.745 17.9085C178.713 17.9085 177.763 18.146 176.895 18.621C176.048 19.0753 175.367 19.7775 174.851 20.7275C174.334 21.6776 174.076 22.8341 174.076 24.1972C174.076 25.5809 174.324 26.7477 174.82 27.6978C175.336 28.6478 176.018 29.3603 176.864 29.8353C177.711 30.2896 178.64 30.5168 179.652 30.5168ZM194.883 18.4971C195.379 17.5264 196.081 16.7726 196.99 16.2356C197.919 15.6987 199.044 15.4302 200.366 15.4302V18.3422H199.623C196.463 18.3422 194.883 20.0563 194.883 23.4846V32.7163H192.064V15.74H194.883V18.4971ZM202.567 24.1662C202.567 22.4314 202.918 20.9134 203.62 19.6123C204.323 18.2906 205.283 17.2683 206.501 16.5454C207.741 15.8226 209.114 15.4612 210.622 15.4612C212.109 15.4612 213.399 15.7813 214.494 16.4215C215.589 17.0617 216.404 17.8672 216.941 18.8378V15.74H219.791V32.7163H216.941V29.5565C216.384 30.5478 215.547 31.3739 214.432 32.0348C213.337 32.675 212.057 32.9951 210.591 32.9951C209.083 32.9951 207.72 32.6234 206.501 31.8799C205.283 31.1364 204.323 30.0934 203.62 28.751C202.918 27.4086 202.567 25.8803 202.567 24.1662ZM216.941 24.1972C216.941 22.9167 216.683 21.8015 216.167 20.8515C215.651 19.9014 214.948 19.1786 214.06 18.6829C213.193 18.1666 212.233 17.9085 211.179 17.9085C210.126 17.9085 209.166 18.1563 208.298 18.652C207.431 19.1476 206.739 19.8705 206.223 20.8205C205.706 21.7705 205.448 22.8857 205.448 24.1662C205.448 25.4673 205.706 26.6032 206.223 27.5738C206.739 28.5239 207.431 29.257 208.298 29.7733C209.166 30.269 210.126 30.5168 211.179 30.5168C212.233 30.5168 213.193 30.269 214.06 29.7733C214.948 29.257 215.651 28.5239 216.167 27.5738C216.683 26.6032 216.941 25.4776 216.941 24.1972Z" fill="#FAF1E0"/>
<path d="M101.771 40.4983C102.527 40.4983 103.199 40.6576 103.789 40.9763C104.379 41.2831 104.846 41.7492 105.188 42.3747C105.53 43.0002 105.701 43.7614 105.701 44.6583V50.3761H104.108V44.8884C104.108 43.9207 103.866 43.1831 103.382 42.6757C102.91 42.1564 102.267 41.8968 101.453 41.8968C100.615 41.8968 99.948 42.1682 99.4523 42.7111C98.9567 43.2421 98.7089 44.0151 98.7089 45.03V50.3761H97.1157V44.8884C97.1157 43.9207 96.8737 43.1831 96.3899 42.6757C95.9178 42.1564 95.2746 41.8968 94.4603 41.8968C93.6224 41.8968 92.9557 42.1682 92.46 42.7111C91.9643 43.2421 91.7165 44.0151 91.7165 45.03V50.3761H90.1056V40.6753H91.7165V42.0738C92.0351 41.5663 92.46 41.1769 92.9911 40.9054C93.5339 40.634 94.1299 40.4983 94.779 40.4983C95.5933 40.4983 96.3132 40.6812 96.9386 41.0471C97.5641 41.4129 98.0303 41.9499 98.3371 42.658C98.6085 41.9735 99.057 41.4424 99.6825 41.0648C100.308 40.6871 101.004 40.4983 101.771 40.4983ZM117.195 45.154C117.195 45.4608 117.177 45.7853 117.142 46.1276H109.388C109.447 47.0835 109.772 47.8329 110.362 48.3757C110.964 48.9068 111.689 49.1723 112.539 49.1723C113.235 49.1723 113.814 49.013 114.274 48.6944C114.746 48.3639 115.076 47.9273 115.265 47.3844H117C116.74 48.3167 116.221 49.0779 115.442 49.668C114.663 50.2463 113.696 50.5354 112.539 50.5354C111.619 50.5354 110.792 50.3289 110.061 49.9158C109.341 49.5028 108.774 48.9186 108.361 48.1633C107.948 47.3962 107.742 46.5111 107.742 45.508C107.742 44.5049 107.942 43.6257 108.344 42.8704C108.745 42.1151 109.305 41.5368 110.025 41.1356C110.757 40.7225 111.595 40.516 112.539 40.516C113.46 40.516 114.274 40.7166 114.982 41.1179C115.69 41.5191 116.233 42.0738 116.611 42.7819C117 43.4782 117.195 44.2688 117.195 45.154ZM115.531 44.8176C115.531 44.2039 115.395 43.6788 115.124 43.2421C114.852 42.7937 114.48 42.4573 114.008 42.2331C113.548 41.9971 113.035 41.8791 112.468 41.8791C111.654 41.8791 110.958 42.1387 110.379 42.658C109.813 43.1772 109.488 43.8971 109.406 44.8176H115.531ZM118.719 45.4903C118.719 44.499 118.92 43.6316 119.321 42.8881C119.722 42.1328 120.271 41.5486 120.967 41.1356C121.675 40.7225 122.466 40.516 123.339 40.516C124.095 40.516 124.797 40.693 125.446 41.0471C126.095 41.3893 126.591 41.8437 126.933 42.4101V37.2765H128.562V50.3761H126.933V48.5528C126.614 49.131 126.142 49.609 125.517 49.9866C124.891 50.3525 124.16 50.5354 123.322 50.5354C122.46 50.5354 121.675 50.323 120.967 49.8981C120.271 49.4733 119.722 48.8773 119.321 48.1102C118.92 47.3431 118.719 46.4698 118.719 45.4903ZM126.933 45.508C126.933 44.7763 126.785 44.139 126.49 43.5962C126.195 43.0533 125.794 42.6403 125.287 42.357C124.791 42.062 124.242 41.9145 123.64 41.9145C123.038 41.9145 122.49 42.0561 121.994 42.3393C121.498 42.6226 121.103 43.0356 120.808 43.5785C120.513 44.1213 120.365 44.7586 120.365 45.4903C120.365 46.2338 120.513 46.8829 120.808 47.4375C121.103 47.9804 121.498 48.3993 121.994 48.6944C122.49 48.9776 123.038 49.1192 123.64 49.1192C124.242 49.1192 124.791 48.9776 125.287 48.6944C125.794 48.3993 126.195 47.9804 126.49 47.4375C126.785 46.8829 126.933 46.2397 126.933 45.508Z" fill="#FAF1E0"/>
</g>
<defs>
<clipPath id="clip0_18240_4121">
<rect width="222" height="62" fill="white"/>
</clipPath>
</defs>
</svg>
